<?xml version="1.0" ?><svg id="Layer_1" style="enable-background:new 0 0 512 512;" version="1.1" viewBox="0 0 512 512" xml:space="preserve" xmlns="http://www.w3.org/2000/svg" xmlns:xlink="http://www.w3.org/1999/xlink"><style type="text/css">
	.st0{fill:url(#SVGID_1_);}
	.st1{fill:#1769FF;}
	.st2{fill:url(#SVGID_2_);}
	.st3{fill:url(#SVGID_3_);}
</style><g><g><g><linearGradient gradientUnits="userSpaceOnUse" id="SVGID_1_" x1="188.8853" x2="209.9886" y1="197.4811" y2="234.033"><stop offset="0" style="stop-color:#1769FF"/><stop offset="1" style="stop-color:#94DCFF"/></linearGradient><path class="st0" d="M176.7,229.1v-24.6h29.2c6.8,0,12.5,0.7,16.8,2.1c2.5,1.1,5.2,3.2,5.2,9.8c0,6.4-2.3,8.5-4,9.5     c-3.4,2.1-8.1,3.2-14,3.2H176.7z"/><path class="st1" d="M205.9,209.5c6.2,0,11.3,0.6,15,1.8c0.9,0.4,2,1.2,2,5.1c0,2.8-0.5,4.6-1.6,5.3c-2.6,1.6-6.5,2.4-11.4,2.4     h-28.2v-14.6H205.9 M205.9,199.5h-34.2v34.6h38.2c6.8,0,12.4-1.3,16.6-3.9c4.3-2.6,6.4-7.2,6.4-13.8c0-7.3-2.8-12.1-8.4-14.5     C219.6,200.3,213.4,199.5,205.9,199.5L205.9,199.5z"/></g><g><linearGradient gradientUnits="userSpaceOnUse" id="SVGID_2_" x1="188.0873" x2="212.6479" y1="258.5922" y2="301.1324"><stop offset="0" style="stop-color:#1769FF"/><stop offset="1" style="stop-color:#94DCFF"/></linearGradient><path class="st2" d="M176.7,297v-31.9h33.7c6,0.1,10.6,0.8,13.6,2.2c4.9,2.3,7.1,6,7.1,12.3c0,10.2-4.3,13.5-7.5,15.1     c-3,1.5-7.7,2.2-13.7,2.2H176.7z"/><path class="st1" d="M210.3,270.2c6.6,0.1,9.9,1,11.6,1.7c2.1,1,4.2,2.4,4.2,7.8c0,8.2-3.2,9.9-4.7,10.6     c-1.4,0.7-4.7,1.7-11.5,1.7h-28.2v-21.9H210.3 M210.4,260.2h-38.7V302h38.2c6.8,0,12.1-0.9,15.9-2.8c6.9-3.4,10.3-10,10.3-19.6     c0-8.2-3.3-13.8-10-16.8C222.4,261.1,217.2,260.2,210.4,260.2L210.4,260.2z"/></g><g><linearGradient gradientUnits="userSpaceOnUse" id="SVGID_3_" x1="152.1314" x2="359.8671" y1="76.0969" y2="435.9058"><stop offset="0" style="stop-color:#1769FF"/><stop offset="1" style="stop-color:#94DCFF"/></linearGradient><path class="st3" d="M256,463.8c-114.6,0-207.8-93.2-207.8-207.8c0-114.6,93.2-207.8,207.8-207.8S463.8,141.4,463.8,256     C463.8,370.6,370.6,463.8,256,463.8z M274.1,286.6c2.2,15.9,8.5,28.1,18.7,36.3c12.7,10.2,27.5,15.4,44,15.4     c20.1,0,36.1-6.2,47.4-18.6c7.4-7.8,11.6-15.9,12.5-23.8l0.7-5.6h-39.6l-1.4,2.7c-1.5,2.8-3.1,4.9-5,6.4     c-3.5,2.9-7.9,4.2-13.7,4.2c-5.6,0-10.2-1.2-14.1-3.6c-5.1-3.1-8.1-8.1-9.3-15.3h84l0.1-4.9c0.2-10.2-0.2-18.3-1.1-23.9     c-1.5-9.8-4.9-18.6-10.1-26.1c-5.8-8.5-13.2-14.9-22.2-18.9c-8.7-3.9-18.6-5.9-29.4-5.9c-18.3,0-33.5,5.9-45.1,17.6     c-11.3,11.3-17.1,27.4-17.4,48c-1.1-5.3-3.1-10.2-5.8-14.5c-3-4.7-7.1-8.6-12-11.7c2.2-1.6,4-3.4,5.5-5.2     c5.6-6.7,8.4-15.6,8.4-26.3c0-10.3-2.7-19.4-8.2-26.9c-9-12.2-24-18.5-44.7-18.8l-81,0v167.1h75.8c8.3,0,16.1-0.8,23.2-2.2     c7.5-1.6,14.2-4.5,19.8-8.8c4.9-3.7,9.1-8.3,12.4-13.7C270.8,302.7,273.4,295,274.1,286.6z M294.6,202.1h78.3v-25.9h-78.3V202.1z      M315.7,254.7c1.2-3.8,3-7,5.5-9.5c3.4-3.4,8.1-5.1,14.5-5.1c6,0,10.8,1.7,14.8,5c2.7,2.4,4.6,5.5,5.6,9.6H315.7z"/><path class="st1" d="M256,53.2c27.4,0,53.9,5.4,78.9,15.9c24.1,10.2,45.8,24.8,64.5,43.5c18.6,18.6,33.2,40.3,43.5,64.5     c10.6,25,15.9,51.5,15.9,78.9c0,27.4-5.4,53.9-15.9,78.9c-10.2,24.1-24.8,45.8-43.5,64.5c-18.6,18.6-40.3,33.2-64.5,43.5     c-25,10.6-51.5,15.9-78.9,15.9s-53.9-5.4-78.9-15.9c-24.1-10.2-45.8-24.8-64.5-43.5c-18.6-18.6-33.2-40.3-43.5-64.5     c-10.6-25-15.9-51.5-15.9-78.9c0-27.4,5.4-53.9,15.9-78.9c10.2-24.1,24.8-45.8,43.5-64.5c18.6-18.6,40.3-33.2,64.5-43.5     C202.1,58.6,228.6,53.2,256,53.2 M130.4,339.3h10h70.8c8.6,0,16.8-0.8,24.2-2.3c8.3-1.7,15.6-5,21.8-9.7     c5.4-4.1,10-9.2,13.6-15.1c1.3-2,2.4-4.1,3.4-6.2c3.6,8.4,8.7,15.3,15.5,20.8c13.6,11,29.5,16.5,47.2,16.5     c21.5,0,38.7-6.8,51-20.1c8.1-8.7,12.8-17.6,13.9-26.6l0.8-6.7h0.7l0.1-9.9c0.2-10.6-0.2-18.7-1.1-24.7     c-1.6-10.5-5.3-20-10.9-28.1c-6-8.9-13.6-15.6-22.7-20h9.2v-10v-15.9v-10h-10h-68.3h-10v10v15.9v10h10h4c-6.1,3-11.6,7-16.6,12     c-8.4,8.5-14,19.3-16.9,32.4c-2-2.8-4.3-5.3-6.9-7.5c0.5-0.5,1-1,1.4-1.6c6.4-7.7,9.6-17.6,9.6-29.5c0-11.4-3.1-21.4-9.1-29.8     l0,0l0,0c-9.9-13.5-26.3-20.5-48.6-20.8l-0.1,0h-0.1h-75.9h-10v10v157.1V339.3 M335.7,245.1c4.7,0,8.5,1.3,11.5,3.8     c0.3,0.2,0.6,0.5,0.8,0.8h-24.2c0.3-0.3,0.6-0.7,0.9-1C327.1,246.3,330.7,245.1,335.7,245.1 M352.4,289.8l-0.5,0.9     c-1.2,2.2-2.4,3.8-3.7,4.9l0,0l0,0c-2.5,2.1-5.9,3.1-10.5,3.1c-4.6,0-8.4-0.9-11.4-2.8l0,0l0,0c-1.7-1-3.7-2.7-5.3-6H352.4      M256,43.2C138.5,43.2,43.2,138.5,43.2,256c0,117.5,95.3,212.8,212.8,212.8S468.8,373.5,468.8,256     C468.8,138.5,373.5,43.2,256,43.2L256,43.2z M140.4,329.3V172.2h75.9c19.1,0.3,32.7,5.9,40.7,16.7c4.8,6.7,7.2,14.7,7.2,24     c0,9.6-2.4,17.3-7.3,23.1c-2.7,3.3-6.7,6.3-12,8.9c8,2.9,14.1,7.5,18.2,13.9c4.1,6.3,6.1,14,6.1,23c0,9.3-2.3,17.7-7,25.1     c-3,4.9-6.7,9-11.1,12.4c-5,3.8-10.9,6.5-17.8,7.9c-6.8,1.4-14.2,2.1-22.2,2.1H140.4L140.4,329.3z M299.6,197.1v-15.9h68.3v15.9     H299.6L299.6,197.1z M336.8,333.3c-15.4,0-29.1-4.8-40.9-14.3c-11.8-9.5-17.7-25-17.7-46.5c0-20.1,5.3-35.6,16-46.3     c10.7-10.7,24.5-16.1,41.5-16.1c10.1,0,19.2,1.8,27.3,5.4c8.1,3.6,14.8,9.4,20.1,17.2c4.8,6.9,7.9,14.9,9.3,24     c0.8,5.3,1.2,13,1,23.1h-84.6c0.5,11.7,4.5,19.8,12.1,24.5c4.6,2.9,10.2,4.4,16.7,4.4c6.9,0,12.5-1.8,16.9-5.3     c2.4-1.9,4.4-4.6,6.3-8h31c-0.8,6.9-4.6,13.9-11.3,21C370.1,327.6,355.5,333.3,336.8,333.3L336.8,333.3z M335.7,235.1     c-7.8,0-13.8,2.2-18.1,6.6c-4.3,4.4-7,10.4-8.1,18c1.1-7.6,3.8-13.5,8.1-18C321.9,237.3,327.9,235.1,335.7,235.1     c7.2,0,13.2,2.1,18,6.3c4.8,4.2,7.5,10.3,8.1,18.4c-0.5-8.1-3.3-14.2-8.1-18.4C348.9,237.2,342.9,235.1,335.7,235.1L335.7,235.1z      M335.7,235.1c-7.8,0-13.8,2.2-18.1,6.6c-4.3,4.4-7,10.4-8.1,18c1.1-7.6,3.8-13.5,8.1-18C321.9,237.3,327.9,235.1,335.7,235.1     c7.2,0,13.2,2.1,18,6.3c4.8,4.2,7.5,10.3,8.1,18.4c-0.5-8.1-3.3-14.2-8.1-18.4C348.9,237.2,342.9,235.1,335.7,235.1L335.7,235.1z      M335.7,235.1c-7.8,0-13.8,2.2-18.1,6.6c-4.3,4.4-7,10.4-8.1,18c1.1-7.6,3.8-13.5,8.1-18C321.9,237.3,327.9,235.1,335.7,235.1     c7.2,0,13.2,2.1,18,6.3c4.8,4.2,7.5,10.3,8.1,18.4c-0.5-8.1-3.3-14.2-8.1-18.4C348.9,237.2,342.9,235.1,335.7,235.1L335.7,235.1z      M335.7,235.1c-7.8,0-13.8,2.2-18.1,6.6c-4.3,4.4-7,10.4-8.1,18c1.1-7.6,3.8-13.5,8.1-18C321.9,237.3,327.9,235.1,335.7,235.1     c7.2,0,13.2,2.1,18,6.3c4.8,4.2,7.5,10.3,8.1,18.4c-0.5-8.1-3.3-14.2-8.1-18.4C348.9,237.2,342.9,235.1,335.7,235.1L335.7,235.1z      M335.7,235.1c-7.8,0-13.8,2.2-18.1,6.6c-4.3,4.4-7,10.4-8.1,18c1.1-7.6,3.8-13.5,8.1-18C321.9,237.3,327.9,235.1,335.7,235.1     c7.2,0,13.2,2.1,18,6.3c4.8,4.2,7.5,10.3,8.1,18.4c-0.5-8.1-3.3-14.2-8.1-18.4C348.9,237.2,342.9,235.1,335.7,235.1L335.7,235.1z      M335.7,235.1c-7.8,0-13.8,2.2-18.1,6.6c-4.3,4.4-7,10.4-8.1,18c1.1-7.6,3.8-13.5,8.1-18C321.9,237.3,327.9,235.1,335.7,235.1     c7.2,0,13.2,2.1,18,6.3c4.8,4.2,7.5,10.3,8.1,18.4c-0.5-8.1-3.3-14.2-8.1-18.4C348.9,237.2,342.9,235.1,335.7,235.1L335.7,235.1z      M335.7,235.1c-7.8,0-13.8,2.2-18.1,6.6c-4.3,4.4-7,10.4-8.1,18c1.1-7.6,3.8-13.5,8.1-18C321.9,237.3,327.9,235.1,335.7,235.1     c7.2,0,13.2,2.1,18,6.3c4.8,4.2,7.5,10.3,8.1,18.4c-0.5-8.1-3.3-14.2-8.1-18.4C348.9,237.2,342.9,235.1,335.7,235.1L335.7,235.1z      M335.7,235.1c-7.8,0-13.8,2.2-18.1,6.6c-4.3,4.4-7,10.4-8.1,18c1.1-7.6,3.8-13.5,8.1-18C321.9,237.3,327.9,235.1,335.7,235.1     c7.2,0,13.2,2.1,18,6.3c4.8,4.2,7.5,10.3,8.1,18.4c-0.5-8.1-3.3-14.2-8.1-18.4C348.9,237.2,342.9,235.1,335.7,235.1L335.7,235.1z      M335.7,235.1c-7.8,0-13.8,2.2-18.1,6.6c-4.3,4.4-7,10.4-8.1,18c1.1-7.6,3.8-13.5,8.1-18C321.9,237.3,327.9,235.1,335.7,235.1     c7.2,0,13.2,2.1,18,6.3c4.8,4.2,7.5,10.3,8.1,18.4c-0.5-8.1-3.3-14.2-8.1-18.4C348.9,237.2,342.9,235.1,335.7,235.1L335.7,235.1z      M335.7,235.1c-7.8,0-13.8,2.2-18.1,6.6c-4.3,4.4-7,10.4-8.1,18c1.1-7.6,3.8-13.5,8.1-18C321.9,237.3,327.9,235.1,335.7,235.1     c7.2,0,13.2,2.1,18,6.3c4.8,4.2,7.5,10.3,8.1,18.4c-0.5-8.1-3.3-14.2-8.1-18.4C348.9,237.2,342.9,235.1,335.7,235.1L335.7,235.1z      M335.7,235.1c-7.8,0-13.8,2.2-18.1,6.6c-4.3,4.4-7,10.4-8.1,18c1.1-7.6,3.8-13.5,8.1-18C321.9,237.3,327.9,235.1,335.7,235.1     c7.2,0,13.2,2.1,18,6.3c4.8,4.2,7.5,10.3,8.1,18.4c-0.5-8.1-3.3-14.2-8.1-18.4C348.9,237.2,342.9,235.1,335.7,235.1L335.7,235.1z      M335.7,235.1c-7.8,0-13.8,2.2-18.1,6.6c-4.3,4.4-7,10.4-8.1,18c1.1-7.6,3.8-13.5,8.1-18C321.9,237.3,327.9,235.1,335.7,235.1     c7.2,0,13.2,2.1,18,6.3c4.8,4.2,7.5,10.3,8.1,18.4c-0.5-8.1-3.3-14.2-8.1-18.4C348.9,237.2,342.9,235.1,335.7,235.1L335.7,235.1z      M335.7,235.1c-7.8,0-13.8,2.2-18.1,6.6c-4.3,4.4-7,10.4-8.1,18c1.1-7.6,3.8-13.5,8.1-18C321.9,237.3,327.9,235.1,335.7,235.1     c7.2,0,13.2,2.1,18,6.3c4.8,4.2,7.5,10.3,8.1,18.4c-0.5-8.1-3.3-14.2-8.1-18.4C348.9,237.2,342.9,235.1,335.7,235.1L335.7,235.1z      M335.7,235.1c-7.8,0-13.8,2.2-18.1,6.6c-4.3,4.4-7,10.4-8.1,18c1.1-7.6,3.8-13.5,8.1-18C321.9,237.3,327.9,235.1,335.7,235.1     c7.2,0,13.2,2.1,18,6.3c4.8,4.2,7.5,10.3,8.1,18.4c-0.5-8.1-3.3-14.2-8.1-18.4C348.9,237.2,342.9,235.1,335.7,235.1L335.7,235.1z      M335.7,235.1c-7.8,0-13.8,2.2-18.1,6.6c-4.3,4.4-7,10.4-8.1,18c1.1-7.6,3.8-13.5,8.1-18C321.9,237.3,327.9,235.1,335.7,235.1     c7.2,0,13.2,2.1,18,6.3c4.8,4.2,7.5,10.3,8.1,18.4c-0.5-8.1-3.3-14.2-8.1-18.4C348.9,237.2,342.9,235.1,335.7,235.1L335.7,235.1z      M335.7,235.1c-7.8,0-13.8,2.2-18.1,6.6c-4.3,4.4-7,10.4-8.1,18c1.1-7.6,3.8-13.5,8.1-18C321.9,237.3,327.9,235.1,335.7,235.1     c7.2,0,13.2,2.1,18,6.3c4.8,4.2,7.5,10.3,8.1,18.4c-0.5-8.1-3.3-14.2-8.1-18.4C348.9,237.2,342.9,235.1,335.7,235.1L335.7,235.1z      M335.7,235.1c-7.8,0-13.8,2.2-18.1,6.6c-4.3,4.4-7,10.4-8.1,18c1.1-7.6,3.8-13.5,8.1-18C321.9,237.3,327.9,235.1,335.7,235.1     c7.2,0,13.2,2.1,18,6.3c4.8,4.2,7.5,10.3,8.1,18.4c-0.5-8.1-3.3-14.2-8.1-18.4C348.9,237.2,342.9,235.1,335.7,235.1L335.7,235.1z      M335.7,235.1c-7.8,0-13.8,2.2-18.1,6.6c-4.3,4.4-7,10.4-8.1,18c1.1-7.6,3.8-13.5,8.1-18C321.9,237.3,327.9,235.1,335.7,235.1     c7.2,0,13.2,2.1,18,6.3c4.8,4.2,7.5,10.3,8.1,18.4c-0.5-8.1-3.3-14.2-8.1-18.4C348.9,237.2,342.9,235.1,335.7,235.1L335.7,235.1z      M335.7,235.1c-7.8,0-13.8,2.2-18.1,6.6c-4.3,4.4-7,10.4-8.1,18c1.1-7.6,3.8-13.5,8.1-18C321.9,237.3,327.9,235.1,335.7,235.1     c7.2,0,13.2,2.1,18,6.3c4.8,4.2,7.5,10.3,8.1,18.4c-0.5-8.1-3.3-14.2-8.1-18.4C348.9,237.2,342.9,235.1,335.7,235.1L335.7,235.1z      M335.7,235.1c-7.8,0-13.8,2.2-18.1,6.6c-4.3,4.4-7,10.4-8.1,18c1.1-7.6,3.8-13.5,8.1-18C321.9,237.3,327.9,235.1,335.7,235.1     c7.2,0,13.2,2.1,18,6.3c4.8,4.2,7.5,10.3,8.1,18.4c-0.5-8.1-3.3-14.2-8.1-18.4C348.9,237.2,342.9,235.1,335.7,235.1L335.7,235.1z      M335.7,235.1c-7.8,0-13.8,2.2-18.1,6.6c-4.3,4.4-7,10.4-8.1,18c1.1-7.6,3.8-13.5,8.1-18C321.9,237.3,327.9,235.1,335.7,235.1     c7.2,0,13.2,2.1,18,6.3c4.8,4.2,7.5,10.3,8.1,18.4c-0.5-8.1-3.3-14.2-8.1-18.4C348.9,237.2,342.9,235.1,335.7,235.1L335.7,235.1z      M335.7,235.1c-7.8,0-13.8,2.2-18.1,6.6c-4.3,4.4-7,10.4-8.1,18c1.1-7.6,3.8-13.5,8.1-18C321.9,237.3,327.9,235.1,335.7,235.1     c7.2,0,13.2,2.1,18,6.3c4.8,4.2,7.5,10.3,8.1,18.4c-0.5-8.1-3.3-14.2-8.1-18.4C348.9,237.2,342.9,235.1,335.7,235.1L335.7,235.1z      M335.7,235.1c-7.8,0-13.8,2.2-18.1,6.6c-4.3,4.4-7,10.4-8.1,18c1.1-7.6,3.8-13.5,8.1-18C321.9,237.3,327.9,235.1,335.7,235.1     c7.2,0,13.2,2.1,18,6.3c4.8,4.2,7.5,10.3,8.1,18.4c-0.5-8.1-3.3-14.2-8.1-18.4C348.9,237.2,342.9,235.1,335.7,235.1L335.7,235.1z      M335.7,235.1c-7.8,0-13.8,2.2-18.1,6.6c-4.3,4.4-7,10.4-8.1,18c1.1-7.6,3.8-13.5,8.1-18C321.9,237.3,327.9,235.1,335.7,235.1     c7.2,0,13.2,2.1,18,6.3c4.8,4.2,7.5,10.3,8.1,18.4c-0.5-8.1-3.3-14.2-8.1-18.4C348.9,237.2,342.9,235.1,335.7,235.1L335.7,235.1z      M335.7,235.1c-7.8,0-13.8,2.2-18.1,6.6c-4.3,4.4-7,10.4-8.1,18c1.1-7.6,3.8-13.5,8.1-18C321.9,237.3,327.9,235.1,335.7,235.1     c7.2,0,13.2,2.1,18,6.3c4.8,4.2,7.5,10.3,8.1,18.4c-0.5-8.1-3.3-14.2-8.1-18.4C348.9,237.2,342.9,235.1,335.7,235.1L335.7,235.1z      M335.7,235.1c-7.8,0-13.8,2.2-18.1,6.6c-4.3,4.4-7,10.4-8.1,18c1.1-7.6,3.8-13.5,8.1-18C321.9,237.3,327.9,235.1,335.7,235.1     c7.2,0,13.2,2.1,18,6.3c4.8,4.2,7.5,10.3,8.1,18.4c-0.5-8.1-3.3-14.2-8.1-18.4C348.9,237.2,342.9,235.1,335.7,235.1L335.7,235.1z      M335.7,235.1c-7.8,0-13.8,2.2-18.1,6.6c-4.3,4.4-7,10.4-8.1,18c1.1-7.6,3.8-13.5,8.1-18C321.9,237.3,327.9,235.1,335.7,235.1     c7.2,0,13.2,2.1,18,6.3c4.8,4.2,7.5,10.3,8.1,18.4c-0.5-8.1-3.3-14.2-8.1-18.4C348.9,237.2,342.9,235.1,335.7,235.1L335.7,235.1z      M335.7,235.1c-7.8,0-13.8,2.2-18.1,6.6c-4.3,4.4-7,10.4-8.1,18c1.1-7.6,3.8-13.5,8.1-18C321.9,237.3,327.9,235.1,335.7,235.1     c7.2,0,13.2,2.1,18,6.3c4.8,4.2,7.5,10.3,8.1,18.4c-0.5-8.1-3.3-14.2-8.1-18.4C348.9,237.2,342.9,235.1,335.7,235.1L335.7,235.1z      M335.7,235.1c-7.8,0-13.8,2.2-18.1,6.6c-4.3,4.4-7,10.4-8.1,18c1.1-7.6,3.8-13.5,8.1-18C321.9,237.3,327.9,235.1,335.7,235.1     c7.2,0,13.2,2.1,18,6.3c4.8,4.2,7.5,10.3,8.1,18.4c-0.5-8.1-3.3-14.2-8.1-18.4C348.9,237.2,342.9,235.1,335.7,235.1L335.7,235.1z      M335.7,235.1c-7.8,0-13.8,2.2-18.1,6.6c-4.3,4.4-7,10.4-8.1,18c1.1-7.6,3.8-13.5,8.1-18C321.9,237.3,327.9,235.1,335.7,235.1     c7.2,0,13.2,2.1,18,6.3c4.8,4.2,7.5,10.3,8.1,18.4c-0.5-8.1-3.3-14.2-8.1-18.4C348.9,237.2,342.9,235.1,335.7,235.1L335.7,235.1z      M335.7,235.1c-7.8,0-13.8,2.2-18.1,6.6c-4.3,4.4-7,10.4-8.1,18c1.1-7.6,3.8-13.5,8.1-18C321.9,237.3,327.9,235.1,335.7,235.1     c7.2,0,13.2,2.1,18,6.3c4.8,4.2,7.5,10.3,8.1,18.4c-0.5-8.1-3.3-14.2-8.1-18.4C348.9,237.2,342.9,235.1,335.7,235.1L335.7,235.1z      M335.7,235.1c-7.8,0-13.8,2.2-18.1,6.6c-4.3,4.4-7,10.4-8.1,18c1.1-7.6,3.8-13.5,8.1-18C321.9,237.3,327.9,235.1,335.7,235.1     c7.2,0,13.2,2.1,18,6.3c4.8,4.2,7.5,10.3,8.1,18.4c-0.5-8.1-3.3-14.2-8.1-18.4C348.9,237.2,342.9,235.1,335.7,235.1L335.7,235.1z      M335.7,235.1c-7.8,0-13.8,2.2-18.1,6.6c-4.3,4.4-7,10.4-8.1,18c1.1-7.6,3.8-13.5,8.1-18C321.9,237.3,327.9,235.1,335.7,235.1     c7.2,0,13.2,2.1,18,6.3c4.8,4.2,7.5,10.3,8.1,18.4c-0.5-8.1-3.3-14.2-8.1-18.4C348.9,237.2,342.9,235.1,335.7,235.1L335.7,235.1z      M335.7,235.1c-7.8,0-13.8,2.2-18.1,6.6c-4.3,4.4-7,10.4-8.1,18c1.1-7.6,3.8-13.5,8.1-18C321.9,237.3,327.9,235.1,335.7,235.1     c7.2,0,13.2,2.1,18,6.3c4.8,4.2,7.5,10.3,8.1,18.4c-0.5-8.1-3.3-14.2-8.1-18.4C348.9,237.2,342.9,235.1,335.7,235.1L335.7,235.1z      M335.7,235.1c-7.8,0-13.8,2.2-18.1,6.6c-4.3,4.4-7,10.4-8.1,18c1.1-7.6,3.8-13.5,8.1-18C321.9,237.3,327.9,235.1,335.7,235.1     c7.2,0,13.2,2.1,18,6.3c4.8,4.2,7.5,10.3,8.1,18.4c-0.5-8.1-3.3-14.2-8.1-18.4C348.9,237.2,342.9,235.1,335.7,235.1L335.7,235.1z      M335.7,235.1c-7.8,0-13.8,2.2-18.1,6.6c-4.3,4.4-7,10.4-8.1,18c1.1-7.6,3.8-13.5,8.1-18C321.9,237.3,327.9,235.1,335.7,235.1     c7.2,0,13.2,2.1,18,6.3c4.8,4.2,7.5,10.3,8.1,18.4c-0.5-8.1-3.3-14.2-8.1-18.4C348.9,237.2,342.9,235.1,335.7,235.1L335.7,235.1z      M335.7,235.1c-7.8,0-13.8,2.2-18.1,6.6c-4.3,4.4-7,10.4-8.1,18c1.1-7.6,3.8-13.5,8.1-18C321.9,237.3,327.9,235.1,335.7,235.1     c7.2,0,13.2,2.1,18,6.3c4.8,4.2,7.5,10.3,8.1,18.4c-0.5-8.1-3.3-14.2-8.1-18.4C348.9,237.2,342.9,235.1,335.7,235.1L335.7,235.1z      M335.7,235.1c-7.8,0-13.8,2.2-18.1,6.6c-4.3,4.4-7,10.4-8.1,18c1.1-7.6,3.8-13.5,8.1-18C321.9,237.3,327.9,235.1,335.7,235.1     c7.2,0,13.2,2.1,18,6.3c4.8,4.2,7.5,10.3,8.1,18.4c-0.5-8.1-3.3-14.2-8.1-18.4C348.9,237.2,342.9,235.1,335.7,235.1L335.7,235.1z      M335.7,235.1c-7.8,0-13.8,2.2-18.1,6.6c-4.3,4.4-7,10.4-8.1,18c1.1-7.6,3.8-13.5,8.1-18C321.9,237.3,327.9,235.1,335.7,235.1     c7.2,0,13.2,2.1,18,6.3c4.8,4.2,7.5,10.3,8.1,18.4c-0.5-8.1-3.3-14.2-8.1-18.4C348.9,237.2,342.9,235.1,335.7,235.1L335.7,235.1z      M335.7,235.1c-7.8,0-13.8,2.2-18.1,6.6c-4.3,4.4-7,10.4-8.1,18c1.1-7.6,3.8-13.5,8.1-18C321.9,237.3,327.9,235.1,335.7,235.1     c7.2,0,13.2,2.1,18,6.3c4.8,4.2,7.5,10.3,8.1,18.4c-0.5-8.1-3.3-14.2-8.1-18.4C348.9,237.2,342.9,235.1,335.7,235.1L335.7,235.1z      M335.7,235.1c-7.8,0-13.8,2.2-18.1,6.6c-4.3,4.4-7,10.4-8.1,18h52.3c-0.5-8.1-3.3-14.2-8.1-18.4     C348.9,237.2,342.9,235.1,335.7,235.1L335.7,235.1z M361.8,259.7h-52.3H361.8L361.8,259.7z M361.8,259.7h-52.3H361.8L361.8,259.7     z M361.8,259.7h-52.3H361.8L361.8,259.7z M361.8,259.7h-52.3H361.8L361.8,259.7z M361.8,259.7h-52.3H361.8L361.8,259.7z      M361.8,259.7h-52.3H361.8L361.8,259.7z M361.8,259.7h-52.3H361.8L361.8,259.7z M361.8,259.7h-52.3H361.8L361.8,259.7z      M361.8,259.7h-52.3H361.8L361.8,259.7z M361.8,259.7h-52.3H361.8L361.8,259.7z M361.8,259.7h-52.3H361.8L361.8,259.7z      M361.8,259.7h-52.3H361.8L361.8,259.7z M361.8,259.7h-52.3H361.8L361.8,259.7z M361.8,259.7h-52.3H361.8L361.8,259.7z      M361.8,259.7h-52.3H361.8L361.8,259.7z M361.8,259.7h-52.3H361.8L361.8,259.7z M361.8,259.7h-52.3H361.8L361.8,259.7z      M361.8,259.7h-52.3H361.8L361.8,259.7z M361.8,259.7h-52.3H361.8L361.8,259.7z M361.8,259.7h-52.3H361.8L361.8,259.7z      M361.8,259.7h-52.3H361.8L361.8,259.7z M361.8,259.7h-52.3H361.8L361.8,259.7z M361.8,259.7h-52.3H361.8L361.8,259.7z      M361.8,259.7h-52.3H361.8L361.8,259.7z M361.8,259.7h-52.3H361.8L361.8,259.7z M361.8,259.7h-52.3H361.8L361.8,259.7z      M361.8,259.7h-52.3H361.8L361.8,259.7z M361.8,259.7h-52.3H361.8L361.8,259.7z M361.8,259.7h-52.3H361.8L361.8,259.7z      M361.8,259.7h-52.3H361.8L361.8,259.7z M361.8,259.7h-52.3H361.8L361.8,259.7z M361.8,259.7h-52.3H361.8L361.8,259.7z      M361.8,259.7h-52.3H361.8L361.8,259.7z M361.8,259.7h-52.3H361.8L361.8,259.7z M361.8,259.7h-52.3H361.8L361.8,259.7z      M361.8,259.7h-52.3H361.8L361.8,259.7z M361.8,259.7h-52.3H361.8L361.8,259.7z M361.8,259.7h-52.3H361.8L361.8,259.7z      M361.8,259.7h-52.3H361.8L361.8,259.7z M361.8,259.7h-52.3H361.8L361.8,259.7z"/></g></g></g></svg>