<?xml version="1.0" ?><svg id="Layer_1" style="enable-background:new 0 0 512 512;" version="1.1" viewBox="0 0 512 512" xml:space="preserve" xmlns="http://www.w3.org/2000/svg" xmlns:xlink="http://www.w3.org/1999/xlink"><style type="text/css">
	.st0{fill:url(#SVGID_1_);}
	.st1{fill:#0077B5;}
</style><g><g><g><linearGradient gradientUnits="userSpaceOnUse" id="SVGID_1_" x1="152.1314" x2="359.8671" y1="76.0969" y2="435.9058"><stop offset="0" style="stop-color:#0077B5"/><stop offset="1" style="stop-color:#8DDEFF"/></linearGradient><path class="st0" d="M256,463.8c-114.6,0-207.8-93.2-207.8-207.8c0-114.6,93.2-207.8,207.8-207.8S463.8,141.4,463.8,256     C463.8,370.6,370.6,463.8,256,463.8z M304.2,255.1c5,0,20.3,0,20.3,28.6v83.8h56.2v-100c0-40.5-22.3-64.6-59.6-64.6     c-19.3,0-32.3,8.3-40.2,15.7v-11.1h-54.5v160h54.5v-83.8C280.9,270.7,284.9,255.1,304.2,255.1z M150.2,367.5h56.4v-160h-56.4     V367.5z M178.2,132.5c-17.9,0-32.4,14.7-32.4,32.7c0,18,14.6,32.7,32.4,32.7c17.9,0,32.5-14.7,32.5-32.7     C210.7,147.2,196.1,132.5,178.2,132.5z"/><path class="st1" d="M256,53.2c27.4,0,53.9,5.4,78.9,15.9c24.1,10.2,45.8,24.8,64.5,43.5c18.6,18.6,33.2,40.3,43.5,64.5     c10.6,25,15.9,51.5,15.9,78.9c0,27.4-5.4,53.9-15.9,78.9c-10.2,24.1-24.8,45.8-43.5,64.5c-18.6,18.6-40.3,33.2-64.5,43.5     c-25,10.6-51.5,15.9-78.9,15.9s-53.9-5.4-78.9-15.9c-24.1-10.2-45.8-24.8-64.5-43.5c-18.6-18.6-33.2-40.3-43.5-64.5     c-10.6-25-15.9-51.5-15.9-78.9c0-27.4,5.4-53.9,15.9-78.9c10.2-24.1,24.8-45.8,43.5-64.5c18.6-18.6,40.3-33.2,64.5-43.5     C202.1,58.6,228.6,53.2,256,53.2 M173.1,202.5h-17.9h-10v10v150v10h10h46.4h10v-10v-150v-10h-10h-18.3     c18.2-2.5,32.3-18.3,32.3-37.3c0-20.8-16.8-37.7-37.5-37.7c-20.6,0-37.4,16.9-37.4,37.7C140.8,184.2,154.9,200,173.1,202.5      M285.9,208.3v-5.8h-10h-44.5h-10v10v150v10h10h44.5h10v-10v-78.8c0-8.1,1.7-14.5,4.9-18.4c2.9-3.5,7.3-5.3,13.4-5.3     c6.8,0,9.5,2.6,11,4.6c2.8,3.8,4.3,10.4,4.3,19v78.8v10h10h46.2h10v-10v-95c0-42.9-24.7-69.6-64.6-69.6     C306,197.9,294.4,202.6,285.9,208.3 M256,43.2C138.5,43.2,43.2,138.5,43.2,256c0,117.5,95.3,212.8,212.8,212.8     S468.8,373.5,468.8,256C468.8,138.5,373.5,43.2,256,43.2L256,43.2z M178.2,192.9c-15.2,0-27.4-12.4-27.4-27.7     c0-15.3,12.3-27.7,27.4-27.7c15.2,0,27.5,12.4,27.5,27.7C205.7,180.5,193.4,192.9,178.2,192.9L178.2,192.9z M275.9,232.7     c0,0,13.4-24.8,45.2-24.8c31.8,0,54.6,19.4,54.6,59.6c0,40.2,0,95,0,95h-46.2c0,0,0-57.1,0-78.8c0-21.6-8.2-33.6-25.3-33.6     c-18.6,0-28.3,12.6-28.3,33.6c0,23.1,0,78.8,0,78.8h-44.5v-150h44.5V232.7L275.9,232.7z M155.2,362.5v-150h46.4v150H155.2     L155.2,362.5z"/></g></g></g></svg>